HIERARCHY
ROOT Hips
{
	OFFSET 0.000000 121.760803 0.000000
	CHANNELS 6 Xposition Yposition Zposition Xrotation Yrotation Zrotation 
	JOINT Spine
	{
		OFFSET 0.072000 7.257294 -0.789700
		CHANNELS 3 Xrotation Yrotation Zrotation
		JOINT Spine1
		{
			OFFSET 0.000000 12.508769 -0.658067
			CHANNELS 3 Xrotation Yrotation Zrotation
			JOINT Spine1_split
			{
				OFFSET 0.000000 12.508769 -0.658067
				CHANNELS 3 Xrotation Yrotation Zrotation
				JOINT Spine2
				{
					OFFSET 0.000000 12.508769 -0.658067
					CHANNELS 3 Xrotation Yrotation Zrotation
					JOINT Neck
					{
						OFFSET 0.000000 14.033295 7.520400
						CHANNELS 3 Xrotation Yrotation Zrotation
						JOINT Head
						{
							OFFSET 0.000000 8.198502 5.703100
							CHANNELS 3 Xrotation Yrotation Zrotation
							JOINT HeadTop_End
							{
								OFFSET 0.000000 17.760803 13.332701
								CHANNELS 3 Xrotation Yrotation Zrotation
								End Site
								{
									OFFSET 0.000000 0.000000 0.000000
								}
							}
						}
					}
					JOINT LeftShoulder
					{
						OFFSET 6.292450 5.785301 -0.669000
						CHANNELS 3 Xrotation Yrotation Zrotation
						JOINT LeftShoulder_split
						{
							OFFSET 6.292450 5.785301 -0.669000
							CHANNELS 3 Xrotation Yrotation Zrotation
							JOINT LeftArm
							{
								OFFSET 13.907140 -6.093903 1.965100
								CHANNELS 3 Xrotation Yrotation Zrotation
								JOINT LeftForeArm
								{
									OFFSET 34.140198 0.000000 0.000000
									CHANNELS 3 Xrotation Yrotation Zrotation
									JOINT LeftHand
									{
										OFFSET 40.960209 0.000000 0.000000
										CHANNELS 3 Xrotation Yrotation Zrotation
										JOINT LeftHandThumb1
										{
											OFFSET 10.006996 -7.170425 9.573125
											CHANNELS 3 Xrotation Yrotation Zrotation
											JOINT LeftHandThumb2
											{
												OFFSET 1.835007 -1.059448 1.059443
												CHANNELS 3 Xrotation Yrotation Zrotation
												JOINT LeftHandThumb3
												{
													OFFSET 2.112267 -1.219513 1.219518
													CHANNELS 3 Xrotation Yrotation Zrotation
													JOINT LeftHandThumb4
													{
														OFFSET 4.843811 -2.796570 2.796576
														CHANNELS 3 Xrotation Yrotation Zrotation
														End Site
														{
															OFFSET 0.000000 0.000000 0.000000
														}
													}
												}
											}
										}
										JOINT LeftHandIndex1
										{
											OFFSET 18.389847 -0.922348 4.596882
											CHANNELS 3 Xrotation Yrotation Zrotation
											JOINT LeftHandIndex2
											{
												OFFSET 4.711273 0.000000 0.000000
												CHANNELS 3 Xrotation Yrotation Zrotation
												JOINT LeftHandIndex3
												{
													OFFSET 2.886131 0.000000 0.000000
													CHANNELS 3 Xrotation Yrotation Zrotation
													JOINT LeftHandIndex4
													{
														OFFSET 6.145912 0.000000 0.000000
														CHANNELS 3 Xrotation Yrotation Zrotation
														End Site
														{
															OFFSET 0.000000 0.000000 0.000000
														}
													}
												}
											}
										}
										JOINT LeftHandMiddle1
										{
											OFFSET 18.013008 0.000000 0.000000
											CHANNELS 3 Xrotation Yrotation Zrotation
											JOINT LeftHandMiddle2
											{
												OFFSET 4.946693 0.000000 0.000000
												CHANNELS 3 Xrotation Yrotation Zrotation
												JOINT LeftHandMiddle3
												{
													OFFSET 3.342232 0.000000 0.000000
													CHANNELS 3 Xrotation Yrotation Zrotation
													JOINT LeftHandMiddle4
													{
														OFFSET 4.461754 0.000000 0.000000
														CHANNELS 3 Xrotation Yrotation Zrotation
														End Site
														{
															OFFSET 0.000000 0.000000 0.000000
														}
													}
												}
											}
										}
										JOINT LeftHandRing1
										{
											OFFSET 15.849892 -0.102921 -4.126150
											CHANNELS 3 Xrotation Yrotation Zrotation
											JOINT LeftHandRing2
											{
												OFFSET 3.527054 0.000000 0.000000
												CHANNELS 3 Xrotation Yrotation Zrotation
												JOINT LeftHandRing3
												{
													OFFSET 2.961098 0.000000 0.000000
													CHANNELS 3 Xrotation Yrotation Zrotation
													JOINT LeftHandRing4
													{
														OFFSET 4.927200 0.000000 0.000000
														CHANNELS 3 Xrotation Yrotation Zrotation
														End Site
														{
															OFFSET 0.000000 0.000000 0.000000
														}
													}
												}
											}
										}
										JOINT LeftHandPinky1
										{
											OFFSET 12.791824 -0.832031 -6.799156
											CHANNELS 3 Xrotation Yrotation Zrotation
											JOINT LeftHandPinky2
											{
												OFFSET 3.327133 0.000000 0.000000
												CHANNELS 3 Xrotation Yrotation Zrotation
												JOINT LeftHandPinky3
												{
													OFFSET 3.014900 0.000000 0.000000
													CHANNELS 3 Xrotation Yrotation Zrotation
													JOINT LeftHandPinky4
													{
														OFFSET 5.847786 0.000000 0.000000
														CHANNELS 3 Xrotation Yrotation Zrotation
														End Site
														{
															OFFSET 0.000000 0.000000 0.000000
														}
													}
												}
											}
										}
									}
								}
							}
						}
					}
					JOINT RightShoulder
					{
						OFFSET -6.292450 5.785301 -0.669000
						CHANNELS 3 Xrotation Yrotation Zrotation
						JOINT RightShoulder_split
						{
							OFFSET -6.292450 5.785301 -0.669000
							CHANNELS 3 Xrotation Yrotation Zrotation
							JOINT RightArm
							{
								OFFSET -13.907140 -6.093903 1.965100
								CHANNELS 3 Xrotation Yrotation Zrotation
								JOINT RightForeArm
								{
									OFFSET -34.140198 0.000000 0.000000
									CHANNELS 3 Xrotation Yrotation Zrotation
									JOINT RightHand
									{
										OFFSET -40.960209 0.000000 0.000000
										CHANNELS 3 Xrotation Yrotation Zrotation
										JOINT RightHandThumb1
										{
											OFFSET -10.007050 -7.170456 9.573117
											CHANNELS 3 Xrotation Yrotation Zrotation
											JOINT RightHandThumb2
											{
												OFFSET -1.835007 -1.059448 1.059443
												CHANNELS 3 Xrotation Yrotation Zrotation
												JOINT RightHandThumb3
												{
													OFFSET -2.112267 -1.219513 1.219518
													CHANNELS 3 Xrotation Yrotation Zrotation
													JOINT RightHandThumb4
													{
														OFFSET -4.843834 -2.796585 2.796590
														CHANNELS 3 Xrotation Yrotation Zrotation
														End Site
														{
															OFFSET 0.000000 0.000000 0.000000
														}
													}
												}
											}
										}
										JOINT RightHandIndex1
										{
											OFFSET -18.389870 -0.922424 4.596786
											CHANNELS 3 Xrotation Yrotation Zrotation
											JOINT RightHandIndex2
											{
												OFFSET -4.711273 0.000000 0.000000
												CHANNELS 3 Xrotation Yrotation Zrotation
												JOINT RightHandIndex3
												{
													OFFSET -2.886131 0.000000 0.000000
													CHANNELS 3 Xrotation Yrotation Zrotation
													JOINT RightHandIndex4
													{
														OFFSET -6.145920 0.000000 0.000000
														CHANNELS 3 Xrotation Yrotation Zrotation
														End Site
														{
															OFFSET 0.000000 0.000000 0.000000
														}
													}
												}
											}
										}
										JOINT RightHandMiddle1
										{
											OFFSET -18.013008 0.000000 0.000000
											CHANNELS 3 Xrotation Yrotation Zrotation
											JOINT RightHandMiddle2
											{
												OFFSET -4.946693 0.000000 0.000000
												CHANNELS 3 Xrotation Yrotation Zrotation
												JOINT RightHandMiddle3
												{
													OFFSET -3.342232 0.000000 0.000000
													CHANNELS 3 Xrotation Yrotation Zrotation
													JOINT RightHandMiddle4
													{
														OFFSET -4.461754 0.000000 0.000000
														CHANNELS 3 Xrotation Yrotation Zrotation
														End Site
														{
															OFFSET 0.000000 0.000000 0.000000
														}
													}
												}
											}
										}
										JOINT RightHandRing1
										{
											OFFSET -15.849876 -0.102936 -4.126237
											CHANNELS 3 Xrotation Yrotation Zrotation
											JOINT RightHandRing2
											{
												OFFSET -3.527054 0.000000 0.000000
												CHANNELS 3 Xrotation Yrotation Zrotation
												JOINT RightHandRing3
												{
													OFFSET -2.961098 0.000000 0.000000
													CHANNELS 3 Xrotation Yrotation Zrotation
													JOINT RightHandRing4
													{
														OFFSET -4.927200 0.000000 0.000000
														CHANNELS 3 Xrotation Yrotation Zrotation
														End Site
														{
															OFFSET 0.000000 0.000000 0.000000
														}
													}
												}
											}
										}
										JOINT RightHandPinky1
										{
											OFFSET -12.791786 -0.832077 -6.799222
											CHANNELS 3 Xrotation Yrotation Zrotation
											JOINT RightHandPinky2
											{
												OFFSET -3.327133 0.000000 0.000000
												CHANNELS 3 Xrotation Yrotation Zrotation
												JOINT RightHandPinky3
												{
													OFFSET -3.014900 0.000000 0.000000
													CHANNELS 3 Xrotation Yrotation Zrotation
													JOINT RightHandPinky4
													{
														OFFSET -5.847786 0.000000 0.000000
														CHANNELS 3 Xrotation Yrotation Zrotation
														End Site
														{
															OFFSET 0.000000 0.000000 0.000000
														}
													}
												}
											}
										}
									}
								}
							}
						}
					}
				}
			}
		}
	}
	JOINT LeftUpLeg
	{
		OFFSET 13.026900 -6.336304 -1.092800
		CHANNELS 3 Xrotation Yrotation Zrotation
		JOINT LeftLeg
		{
			OFFSET 0.524474 -46.096886 9.782700
			CHANNELS 3 Xrotation Yrotation Zrotation
			JOINT LeftFoot
			{
				OFFSET -0.524474 -53.427422 -12.948200
				CHANNELS 3 Xrotation Yrotation Zrotation
				JOINT LeftToeBase
				{
					OFFSET 0.192200 -14.009700 16.364100
					CHANNELS 3 Xrotation Yrotation Zrotation
					JOINT LeftToe_End
					{
						OFFSET -1.784700 -0.561700 9.474800
						CHANNELS 3 Xrotation Yrotation Zrotation
						End Site
						{
							OFFSET 0.000000 0.000000 0.000000
						}
					}
				}
			}
		}
	}
	JOINT RightUpLeg
	{
		OFFSET -12.883000 -6.336304 -1.092800
		CHANNELS 3 Xrotation Yrotation Zrotation
		JOINT RightLeg
		{
			OFFSET -0.524587 -46.096825 9.782800
			CHANNELS 3 Xrotation Yrotation Zrotation
			JOINT RightFoot
			{
				OFFSET 0.524587 -53.427383 -12.948300
				CHANNELS 3 Xrotation Yrotation Zrotation
				JOINT RightToeBase
				{
					OFFSET -0.192200 -14.009700 16.364100
					CHANNELS 3 Xrotation Yrotation Zrotation
					JOINT RightToe_End
					{
						OFFSET 1.784700 -0.561700 9.474800
						CHANNELS 3 Xrotation Yrotation Zrotation
						End Site
						{
							OFFSET 0.000000 0.000000 0.000000
						}
					}
				}
			}
		}
	}
}
MOTION
Frames: 5
Frame Time: 0.016667
0.770518 109.045143 -0.236223 1.615652 155.602651 3.147658 5.548436 0.029400 -1.480410 11.095623 0.009766 -0.734627 0.000000 0.000000 0.000000 11.095632 0.009768 -0.734628 -10.509367 -1.525004 -3.378806 -17.396261 -3.946710 2.467847 0.000000 -0.000000 -0.000000 9.458516 -6.444351 -14.996474 0.000000 0.000000 0.000000 -9.678072 10.609542 -35.777197 0.014665 -55.260977 0.178981 23.478990 -9.549552 10.015899 7.350846 -14.484226 -10.934837 -1.067063 0.182841 1.946094 0.000008 -0.000018 -0.000011 0.000000 0.000000 -0.000002 5.776124 -9.584553 -10.641312 0.033766 0.666554 -10.636454 -0.000003 -0.000007 -0.000001 0.000000 -0.000000 0.000000 1.641879 7.127185 -4.239643 -0.187961 -0.789326 -15.969032 0.000008 -0.000005 -0.000009 -0.000003 -0.000002 -0.000001 1.677291 11.039960 -8.046065 -0.183060 -2.876877 -23.912163 -0.000004 0.000007 0.000002 -0.000000 0.000001 -0.000000 0.734577 28.047550 -16.218767 -0.849522 -6.142183 -29.148259 -0.000004 0.000006 0.000002 -0.000001 0.000001 0.000000 -3.413059 0.044912 -0.357072 0.000000 0.000000 0.000000 -8.509089 -11.385599 60.673588 -0.093553 56.136799 -0.118044 33.241363 -12.824972 -17.733570 -4.978385 12.391666 9.407264 -1.210139 -0.220447 -2.121003 0.000000 0.000005 0.000002 -0.000001 0.000000 0.000002 10.258602 13.576550 6.067485 0.012534 -0.647882 4.076575 -0.000001 -0.000001 -0.000003 -0.000001 0.000001 0.000000 -1.738476 -1.670999 3.393787 -0.252710 0.798109 21.448276 -0.000000 0.000002 -0.000003 -0.000000 -0.000000 -0.000003 -0.824276 -13.700970 18.348837 -0.242213 2.213610 16.221206 0.000001 -0.000001 -0.000012 0.000000 0.000000 0.000001 -4.380742 -23.900589 30.060318 -0.233915 5.125292 12.870318 0.000001 0.000003 -0.000013 0.000000 -0.000000 -0.000002 -23.864316 -6.504291 9.601760 27.111075 -0.240000 -0.972347 -2.280175 -2.762566 -14.302950 0.002989 -0.026206 0.062610 0.000000 -0.000002 -0.000000 -20.241238 -11.998335 -20.842447 37.218818 0.110246 1.330571 -14.965904 -8.136319 10.174473 -0.012206 -0.109693 0.262089 -0.000000 0.000002 0.000000 
0.726805 108.746719 -0.222335 1.088717 154.670672 3.175641 5.540777 -0.021819 -1.499431 11.081762 -0.077129 -0.835932 0.000000 0.000000 0.000000 11.081762 -0.077129 -0.835931 -10.962308 -1.919705 -3.250078 -17.063821 -4.417238 3.165610 0.000000 0.000001 0.000000 9.412427 -6.453406 -14.019424 0.000000 0.000000 0.000000 -8.662137 10.477076 -35.400495 0.010253 -54.481943 0.179148 23.395503 -10.993428 10.180224 7.349522 -14.482219 -10.935195 -1.067024 0.182835 1.946034 0.000009 -0.000018 -0.000013 0.000001 0.000000 -0.000001 5.776067 -9.584133 -10.640209 0.033752 0.666552 -10.636316 -0.000002 -0.000006 -0.000005 0.000000 0.000000 0.000001 1.641811 7.127183 -4.239309 -0.187948 -0.789346 -15.968853 0.000008 -0.000005 -0.000009 -0.000001 -0.000001 0.000001 1.677158 11.039876 -8.045504 -0.183068 -2.876812 -23.911722 -0.000003 0.000008 0.000002 0.000000 -0.000000 -0.000001 0.734504 28.047048 -16.218539 -0.849497 -6.142052 -29.147716 -0.000004 0.000007 0.000003 0.000000 -0.000000 0.000000 -3.299630 0.252112 -0.421622 0.000000 0.000000 0.000000 -8.140539 -9.974492 59.691851 -0.093554 55.025411 -0.121959 32.733063 -11.033743 -18.050329 -4.980115 12.389506 9.406437 -1.210083 -0.220414 -2.120934 0.000002 0.000005 0.000009 -0.000000 0.000001 0.000001 10.258444 13.576050 6.066706 0.012525 -0.647878 4.076578 -0.000001 0.000001 -0.000002 -0.000001 0.000001 -0.000002 -1.738413 -1.671047 3.393423 -0.252708 0.798100 21.447895 0.000001 0.000003 0.000000 -0.000000 0.000000 0.000002 -0.824409 -13.700833 18.347094 -0.242220 2.213571 16.220916 0.000002 -0.000000 -0.000012 -0.000000 0.000000 -0.000002 -4.381148 -23.900174 30.057487 -0.233935 5.125184 12.870107 0.000001 0.000002 -0.000014 0.000000 0.000000 0.000002 -24.744464 -5.358021 10.312728 28.004033 -0.265813 -1.008425 -2.729403 -3.222896 -14.238585 0.346317 0.059113 -0.008206 -0.000000 -0.000000 0.000000 -21.093328 -11.099470 -20.457499 37.804540 0.131344 1.355396 -15.045669 -8.031362 10.146678 -0.012203 -0.109722 0.262089 0.000000 0.000000 0.000000 
0.670462 108.299377 -0.204419 0.297307 153.301752 3.249837 5.531069 -0.077580 -1.509874 11.063664 -0.166390 -0.951347 0.000000 0.000000 0.000000 11.063664 -0.166380 -0.951350 -11.367808 -2.308014 -3.134615 -16.612922 -4.878089 3.873083 0.000000 -0.000001 -0.000000 9.287391 -6.480151 -13.016982 0.000000 0.000000 0.000000 -7.148114 10.286339 -34.868143 0.002833 -53.374401 0.177112 23.239193 -12.347002 10.353354 7.347645 -14.479381 -10.935734 -1.066973 0.182833 1.945975 0.000009 -0.000017 -0.000011 0.000000 -0.000000 -0.000002 5.775946 -9.583607 -10.639070 0.033754 0.666536 -10.636081 -0.000002 -0.000006 -0.000003 -0.000000 -0.000000 -0.000000 1.641730 7.127102 -4.238974 -0.187943 -0.789334 -15.968610 0.000007 -0.000005 -0.000007 0.000001 0.000000 -0.000002 1.676997 11.039729 -8.044918 -0.183052 -2.876736 -23.911094 -0.000003 0.000007 0.000001 0.000000 0.000000 -0.000000 0.734396 28.046304 -16.218175 -0.849427 -6.141887 -29.146955 -0.000004 0.000004 0.000001 0.000002 0.000001 0.000001 -3.131416 0.557780 -0.519415 0.000000 0.000000 0.000000 -7.620070 -7.972467 58.297290 -0.094675 53.382826 -0.125847 32.021464 -8.492653 -18.497071 -4.982262 12.386640 9.405935 -1.210027 -0.220409 -2.120880 0.000002 0.000007 0.000002 0.000002 -0.000002 -0.000001 10.258134 13.575360 6.065983 0.012523 -0.647869 4.076547 -0.000000 0.000002 -0.000001 0.000001 -0.000002 -0.000003 -1.738354 -1.671123 3.393039 -0.252692 0.798077 21.447364 0.000001 0.000002 0.000000 -0.000001 -0.000001 0.000001 -0.824539 -13.700615 18.345294 -0.242213 2.213513 16.220531 0.000001 -0.000000 -0.000012 -0.000001 0.000000 0.000000 -4.381545 -23.899575 30.054550 -0.233949 5.125050 12.869841 0.000001 0.000003 -0.000012 -0.000000 0.000000 -0.000001 -25.938741 -4.098436 11.257343 29.267214 -0.301155 -1.059178 -3.380508 -3.464018 -14.231970 0.690421 0.188232 -0.109177 0.000000 0.000001 0.000000 -22.359780 -9.868490 -19.936151 38.635829 0.162269 1.390580 -15.145014 -7.774966 10.114165 -0.012201 -0.109696 0.262092 -0.000000 0.000002 0.000000 
0.561313 107.454628 -0.180022 -1.213058 150.740253 3.481416 5.514943 -0.144068 -1.491971 11.032432 -0.262074 -1.106971 0.000000 0.000000 0.000000 11.032436 -0.262060 -1.106977 -11.644141 -2.672794 -3.043681 -15.844135 -5.313090 4.602627 0.000000 0.000003 -0.000000 8.947998 -6.559113 -11.945465 0.000000 0.000000 0.000000 -4.288831 9.928076 -33.890893 -0.012150 -51.337020 0.169233 22.892552 -13.455982 10.544933 7.344177 -14.474161 -10.936684 -1.066920 0.182793 1.945931 0.000008 -0.000017 -0.000006 -0.000001 0.000001 -0.000002 5.775578 -9.582679 -10.637821 0.033748 0.666489 -10.635711 -0.000002 -0.000006 -0.000007 0.000000 0.000000 0.000002 1.641608 7.126963 -4.238591 -0.187945 -0.789325 -15.968137 0.000008 -0.000005 -0.000009 0.000000 0.000000 0.000003 1.676790 11.039397 -8.044202 -0.183011 -2.876585 -23.909972 -0.000004 0.000006 0.000003 -0.000000 0.000000 0.000001 0.734193 28.044970 -16.217557 -0.849271 -6.141613 -29.145537 -0.000009 0.000007 0.000003 -0.000002 0.000000 0.000000 -2.814925 1.132013 -0.706650 0.000000 0.000000 0.000000 -6.670062 -4.296618 55.732660 -0.098517 50.295946 -0.129488 30.742931 -3.827465 -19.312423 -4.985596 12.381778 9.406296 -1.209973 -0.220391 -2.120812 0.000001 0.000003 0.000007 0.000000 -0.000000 -0.000002 10.257408 13.574225 6.065337 0.012526 -0.647840 4.076510 -0.000002 -0.000002 0.000001 -0.000000 0.000003 0.000001 -1.738278 -1.671266 3.392611 -0.252684 0.798057 21.446444 0.000001 0.000003 -0.000000 -0.000000 0.000000 0.000002 -0.824679 -13.700138 18.343214 -0.242201 2.213417 16.219819 0.000000 -0.000000 -0.000009 -0.000000 0.000000 0.000006 -4.381910 -23.898364 30.051214 -0.233923 5.124802 12.869296 0.000000 0.000003 -0.000013 0.000000 -0.000000 -0.000001 -28.061467 -2.490227 12.884073 31.591039 -0.363196 -1.151445 -4.590802 -3.191187 -14.314122 1.036181 0.433685 -0.289536 -0.000000 -0.000001 0.000000 -24.775058 -7.681529 -18.937523 40.160809 0.219026 1.454590 -15.302385 -7.215148 10.068759 -0.012206 -0.109713 0.262089 -0.000000 0.000000 0.000000 
0.420320 106.358963 -0.173334 -3.188138 147.481297 3.957239 5.497888 -0.209253 -1.444752 10.998608 -0.359427 -1.282565 0.000000 0.000000 0.000000 10.998613 -0.359415 -1.282566 -11.857294 -3.028264 -2.963669 -14.919160 -5.734503 5.352189 0.000000 -0.000002 0.000000 8.482501 -6.666478 -10.834773 0.000000 0.000000 0.000000 -0.632528 9.485279 -32.710978 -0.030044 -48.869638 0.157720 22.395535 -14.420001 10.753826 7.339984 -14.467855 -10.937869 -1.066885 0.182802 1.945885 0.000007 -0.000016 -0.000010 -0.000001 0.000001 0.000000 5.775076 -9.581596 -10.636581 0.033737 0.666468 -10.635222 -0.000003 -0.000007 -0.000006 0.000000 0.000000 -0.000000 1.641462 7.126773 -4.238174 -0.187940 -0.789305 -15.967543 0.000007 -0.000005 -0.000009 -0.000000 -0.000001 -0.000000 1.676566 11.038959 -8.043476 -0.182962 -2.876409 -23.908591 -0.000002 0.000007 0.000002 -0.000000 -0.000001 0.000000 0.733930 28.043348 -16.216766 -0.849116 -6.141267 -29.143809 -0.000007 0.000004 0.000002 -0.000002 -0.000001 -0.000000 -2.413231 1.858727 -0.950987 0.000000 0.000000 0.000000 -5.525516 0.166511 52.613770 -0.105285 46.386472 -0.129184 29.238950 1.836398 -20.301571 -4.989451 12.375980 9.407149 -1.209907 -0.220377 -2.120733 0.000003 0.000005 0.000004 -0.000001 0.000002 0.000003 10.256488 13.572880 6.064782 0.012532 -0.647820 4.076461 -0.000001 -0.000001 -0.000001 -0.000001 -0.000001 -0.000001 -1.738192 -1.671430 3.392190 -0.252669 0.798021 21.445295 0.000001 0.000002 -0.000001 0.000001 0.000002 0.000001 -0.824802 -13.699518 18.341093 -0.242174 2.213291 16.218952 -0.000000 -0.000001 -0.000012 -0.000001 0.000000 0.000002 -4.382257 -23.896872 30.047795 -0.233880 5.124501 12.868648 0.000000 0.000003 -0.000012 -0.000000 -0.000000 -0.000002 -30.628163 -0.972850 14.895686 34.497697 -0.440031 -1.264849 -6.140547 -2.385302 -14.517079 1.178973 0.753228 -0.284530 0.000000 -0.000000 -0.000000 -27.958051 -5.260870 -17.658530 42.049694 0.287592 1.532931 -15.471990 -6.204178 10.031227 -0.012206 -0.109700 0.262093 -0.000000 -0.000001 -0.000000 
